{"title":"Straponcum.com - 2. Clumsy Office Temp","uid":7493096,"size":715307490,"categoryP":"porn","categoryS":"movie_clips","magnet":"?xt=urn:btih:67755445a76edf5f54ce9ec93aff720e8be78830&amp;dn=Straponcum.com+-+2.+Clumsy+Office+Temp&amp;tr=udp%3A%2F%2Ftracker.openbittorrent.com%3A80&amp;tr=udp%3A%2F%2Fopen.demonii.com%3A1337&amp;tr=udp%3A%2F%2Ftracker.coppersurfer.tk%3A6969&amp;tr=udp%3A%2F%2Fexodus.desync.com%3A6969","seeders":1,"leechers":3,"uploader":"pspxxx","files":1,"time":1343802991,"description":"2. Clumsy Office Temp\n\nThe new blonde temp looks to be useless. She drops things, knocks things over and is pretty dumb. But still, she has a nice set of legs and a very short shirt.\nPerhaps she can be used for something? Any Ideas?\n\nWhat is Strapon Cum?\nHot, juicy young girls in sexy, kinky outfits play and fuck each other with\nbig strapon that squirts loads of hot gooey cum!! Dungeons &amp; slave training!\nGirl-on-girl bondage! Hours of young girls begging for mercy...and more!\n &lt;a href=&quot;\nhttp://bayimg.com/FaAFhaaEJ&quot; rel=&quot;nofollow&quot; target=&quot;_NEW&quot;&gt;\nhttp://bayimg.com/FaAFhaaEJ&lt;/a&gt;\n\nFormat                                   : Windows Media\nFile size                                : 20.6 MiB\nDuration                                 : 14s 548ms\nOverall bit rate mode                    : Constant\nOverall bit rate                         : 11.9 Mbps\nMaximum Overall bit rate                 : 24.4 Mbps\nEncoded date                             : UTC 2012-07-17 08:11:21.790\n\nVideo\nID                                       : 2\nFormat                                   : VC-1\nFormat profile                           : MP\nCodec ID                                 : WMV3\nCodec ID/Info                            : Windows Media Video 9\nCodec ID/Hint                            : WMV3\nDescription of the codec                 : Windows Media Video 9 - Professional\nDuration                                 : 14s 548ms\nBit rate mode                            : Constant\nBit rate                                 : 24.0 Mbps\nWidth                                    : 1 920 pixels\nHeight                                   : 1 080 pixels\nDisplay aspect ratio                     : 16:9\nFrame rate                               : 29.970 fps\nBit depth                                : 8 bits\nScan type                                : Progressive\nCompression mode                         : Lossy\nBits/(Pixel*Frame)                       : 0.386\nStream size                              : 41.6 MiB\nLanguage                                 : English (US)\n\nAudio\nID                                       : 1\nFormat                                   : WMA\nFormat version                           : Version 2\nCodec ID                                 : 161\nCodec ID/Info                            : Windows Media Audio\nDescription of the codec                 : Windows Media Audio 9.2 - 192 kbps, 48 kHz, stereo (A/V) 1-pass CBR\nDuration                                 : 14s 548ms\nBit rate mode                            : Constant\nBit rate                                 : 192 Kbps\nChannel(s)                               : 2 channels\nSampling rate                            : 48.0 KHz\nBit depth                                : 16 bits\nStream size                              : 341 KiB (2%)\nLanguage                                 : English (US)\n\n","torrent":{"xt":"urn:btih:67755445a76edf5f54ce9ec93aff720e8be78830","amp;dn":"Straponcum.com+-+2.+Clumsy+Office+Temp","amp;tr":["udp%3A%2F%2Ftracker.openbittorrent.com%3A80","udp%3A%2F%2Fopen.demonii.com%3A1337","udp%3A%2F%2Ftracker.coppersurfer.tk%3A6969","udp%3A%2F%2Fexodus.desync.com%3A6969"],"infoHash":"67755445a76edf5f54ce9ec93aff720e8be78830","infoHashBuffer":{"type":"Buffer","data":[103,117,84,69,167,110,223,95,84,206,158,201,58,255,114,14,139,231,136,48]},"announce":[],"urlList":[]}}